<svg xmlns="http://www.w3.org/2000/svg" width="19" height="24" viewBox="0 0 19 24">
    <g fill="#2C2F2B">
        <path d="M9.495 0C4.266 0 .01 4.245.01 9.459c0 .593.054 1.192.169 1.776.005.034.024.138.064.316.144.639.357 1.267.635 1.866 1.022 2.399 3.27 6.084 8.2 10.032.124.1.273.149.422.149.149 0 .298-.05.422-.149 4.926-3.948 7.178-7.633 8.2-10.032.278-.6.491-1.222.635-1.866.04-.178.06-.282.064-.316.11-.584.17-1.183.17-1.776C18.98 4.245 14.723 0 9.494 0zm7.997 11.002c0 .01-.005.02-.005.03l-.045.213v.01c-.124.554-.307 1.093-.55 1.612-.005.005-.005.015-.01.02-.928 2.192-2.962 5.536-7.387 9.182-4.425-3.646-6.459-6.99-7.387-9.182-.005-.005-.005-.015-.01-.02-.238-.514-.421-1.058-.55-1.612v-.01c-.03-.114-.04-.188-.045-.213 0-.01-.005-.02-.005-.035-.099-.51-.149-1.024-.149-1.543 0-4.477 3.656-8.123 8.146-8.123s8.146 3.646 8.146 8.123c0 .524-.05 1.044-.15 1.548z"/>
        <path d="M9.495 3.557c-3.319 0-6.022 2.696-6.022 6.006s2.703 6.006 6.022 6.006c3.319 0 6.022-2.697 6.022-6.006 0-3.31-2.703-6.006-6.022-6.006zm0 10.676c-2.585 0-4.683-2.098-4.683-4.67 0-2.573 2.103-4.67 4.683-4.67 2.58 0 4.683 2.097 4.683 4.67 0 2.572-2.098 4.67-4.683 4.67z"/>
    </g>
</svg>
